<svg xmlns="http://www.w3.org/2000/svg" width="1200" height="1200" viewBox="0 0 1200 1200">
<defs><linearGradient id="bg" x1="0" y1="0" x2="1" y2="1"><stop stop-color="#ffedd5"/><stop offset="1" stop-color="#fff"/></linearGradient><filter id="shadow" x="-30%" y="-30%" width="160%" height="170%"><feDropShadow dx="0" dy="28" stdDeviation="28" flood-color="#7c2d12" flood-opacity=".2"/></filter><pattern id="dots" width="46" height="46" patternUnits="userSpaceOnUse"><circle cx="5" cy="5" r="3" fill="#ea580c" opacity=".16"/></pattern></defs>
<rect width="1200" height="1200" rx="80" fill="url(#bg)"/><rect width="1200" height="1200" rx="80" fill="url(#dots)"/>
<circle cx="1050" cy="145" r="170" fill="#ea580c" opacity=".1"/><circle cx="125" cy="1050" r="210" fill="#7c2d12" opacity=".08"/>
<path d="M360 240c145-45 335-45 480 0l-35 690c-135 58-275 58-410 0l-35-690Z" fill="#fff" filter="url(#shadow)"/><path d="M360 240c145-45 335-45 480 0l-8 150H368l-8-150Z" fill="#ea580c"/><path d="M382 735h436l-13 195c-135 58-275 58-410 0l-13-195Z" fill="#ffedd5"/><ellipse cx="600" cy="760" rx="160" ry="85" fill="#fff" opacity=".7"/><path d="M480 800h240M480 840h240" stroke="#ea580c" stroke-width="8" opacity=".3"/>
<text x="600" y="355" text-anchor="middle" font-family="Arial, sans-serif" font-size="25" font-weight="800" letter-spacing="5" fill="#7c2d12">BRITANNIA BROWN</text>
<text x="600" y="460" text-anchor="middle" font-family="Arial, sans-serif" font-size="23" font-weight="800" letter-spacing="4" fill="#ea580c">BREAKFAST</text>
<text x="600" y="640" text-anchor="middle" font-family="Apple Color Emoji, Segoe UI Emoji, sans-serif" font-size="155">🍞</text>
<text x="600" y="815" text-anchor="middle" font-family="Arial, sans-serif" font-size="43" font-weight="900" fill="#7c2d12"><tspan x="600" dy="0">Britannia Brown Bread</tspan></text>
<rect x="485" y="945" width="230" height="58" rx="29" fill="#7c2d12"/><text x="600" y="984" text-anchor="middle" font-family="Arial, sans-serif" font-size="25" font-weight="800" fill="#fff">400 G LOAF</text>
<text x="600" y="1090" text-anchor="middle" font-family="Arial, sans-serif" font-size="19" font-weight="700" letter-spacing="5" fill="#7c2d12" opacity=".65">QUALITY ASSURED • DAILY VALUE</text>
<g opacity=".6"><rect x="420" y="1120" width="3" height="45" fill="#7c2d12"/><rect x="425" y="1120" width="1" height="45" fill="#7c2d12"/><rect x="428" y="1120" width="4" height="45" fill="#7c2d12"/><rect x="434" y="1120" width="2" height="45" fill="#7c2d12"/><rect x="438" y="1120" width="5" height="45" fill="#7c2d12"/><rect x="445" y="1120" width="1" height="45" fill="#7c2d12"/><rect x="448" y="1120" width="3" height="45" fill="#7c2d12"/><rect x="453" y="1120" width="2" height="45" fill="#7c2d12"/><rect x="457" y="1120" width="4" height="45" fill="#7c2d12"/><rect x="463" y="1120" width="1" height="45" fill="#7c2d12"/><rect x="466" y="1120" width="3" height="45" fill="#7c2d12"/><rect x="471" y="1120" width="2" height="45" fill="#7c2d12"/><rect x="475" y="1120" width="5" height="45" fill="#7c2d12"/><rect x="482" y="1120" width="1" height="45" fill="#7c2d12"/><rect x="485" y="1120" width="4" height="45" fill="#7c2d12"/><rect x="491" y="1120" width="2" height="45" fill="#7c2d12"/><rect x="495" y="1120" width="3" height="45" fill="#7c2d12"/><rect x="500" y="1120" width="1" height="45" fill="#7c2d12"/></g>
</svg>