<svg xmlns="http://www.w3.org/2000/svg" width="1200" height="1200" viewBox="0 0 1200 1200">
<defs><linearGradient id="bg" x1="0" y1="0" x2="1" y2="1"><stop stop-color="#fef3c7"/><stop offset="1" stop-color="#fff"/></linearGradient><filter id="shadow" x="-30%" y="-30%" width="160%" height="170%"><feDropShadow dx="0" dy="28" stdDeviation="28" flood-color="#78350f" flood-opacity=".2"/></filter><pattern id="dots" width="46" height="46" patternUnits="userSpaceOnUse"><circle cx="5" cy="5" r="3" fill="#92400e" opacity=".16"/></pattern></defs>
<rect width="1200" height="1200" rx="80" fill="url(#bg)"/><rect width="1200" height="1200" rx="80" fill="url(#dots)"/>
<circle cx="1050" cy="145" r="170" fill="#92400e" opacity=".1"/><circle cx="125" cy="1050" r="210" fill="#78350f" opacity=".08"/>
<path d="m430 310 90-115h250l75 115v590c0 42-34 76-76 76H431c-42 0-76-34-76-76V310h75Z" fill="#fff" filter="url(#shadow)"/><path d="M430 310h415L770 195H520z" fill="#92400e"/><rect x="400" y="475" width="400" height="360" rx="32" fill="#fef3c7"/><path d="M450 550h300M450 620h300M450 690h300M450 760h300" stroke="#92400e" stroke-width="6" opacity=".3"/>
<text x="600" y="355" text-anchor="middle" font-family="Arial, sans-serif" font-size="25" font-weight="800" letter-spacing="5" fill="#78350f">COCA-COLA ZERO</text>
<text x="600" y="460" text-anchor="middle" font-family="Arial, sans-serif" font-size="23" font-weight="800" letter-spacing="4" fill="#92400e">BEVERAGES</text>
<text x="600" y="640" text-anchor="middle" font-family="Apple Color Emoji, Segoe UI Emoji, sans-serif" font-size="155">🥫</text>
<text x="600" y="815" text-anchor="middle" font-family="Arial, sans-serif" font-size="43" font-weight="900" fill="#78350f"><tspan x="600" dy="0">Coca-Cola Zero Sugar</tspan><tspan x="600" dy="54">Can</tspan></text>
<rect x="485" y="945" width="230" height="58" rx="29" fill="#78350f"/><text x="600" y="984" text-anchor="middle" font-family="Arial, sans-serif" font-size="25" font-weight="800" fill="#fff">300 ML CAN (PACK OF 6)</text>
<text x="600" y="1090" text-anchor="middle" font-family="Arial, sans-serif" font-size="19" font-weight="700" letter-spacing="5" fill="#78350f" opacity=".65">QUALITY ASSURED • DAILY VALUE</text>
<g opacity=".6"><rect x="420" y="1120" width="3" height="45" fill="#78350f"/><rect x="425" y="1120" width="1" height="45" fill="#78350f"/><rect x="428" y="1120" width="4" height="45" fill="#78350f"/><rect x="434" y="1120" width="2" height="45" fill="#78350f"/><rect x="438" y="1120" width="5" height="45" fill="#78350f"/><rect x="445" y="1120" width="1" height="45" fill="#78350f"/><rect x="448" y="1120" width="3" height="45" fill="#78350f"/><rect x="453" y="1120" width="2" height="45" fill="#78350f"/><rect x="457" y="1120" width="4" height="45" fill="#78350f"/><rect x="463" y="1120" width="1" height="45" fill="#78350f"/><rect x="466" y="1120" width="3" height="45" fill="#78350f"/><rect x="471" y="1120" width="2" height="45" fill="#78350f"/><rect x="475" y="1120" width="5" height="45" fill="#78350f"/><rect x="482" y="1120" width="1" height="45" fill="#78350f"/><rect x="485" y="1120" width="4" height="45" fill="#78350f"/><rect x="491" y="1120" width="2" height="45" fill="#78350f"/><rect x="495" y="1120" width="3" height="45" fill="#78350f"/><rect x="500" y="1120" width="1" height="45" fill="#78350f"/></g>
</svg>