<svg xmlns="http://www.w3.org/2000/svg" width="1200" height="1200" viewBox="0 0 1200 1200">
<defs><linearGradient id="bg" x1="0" y1="0" x2="1" y2="1"><stop stop-color="#bbf7d0"/><stop offset="1" stop-color="#fff"/></linearGradient><filter id="shadow" x="-30%" y="-30%" width="160%" height="170%"><feDropShadow dx="0" dy="28" stdDeviation="28" flood-color="#713f12" flood-opacity=".2"/></filter><pattern id="dots" width="46" height="46" patternUnits="userSpaceOnUse"><circle cx="5" cy="5" r="3" fill="#22c55e" opacity=".16"/></pattern></defs>
<rect width="1200" height="1200" rx="80" fill="url(#bg)"/><rect width="1200" height="1200" rx="80" fill="url(#dots)"/>
<circle cx="1050" cy="145" r="170" fill="#22c55e" opacity=".1"/><circle cx="125" cy="1050" r="210" fill="#713f12" opacity=".08"/>
<circle cx="600" cy="610" r="355" fill="#fff" filter="url(#shadow)"/><circle cx="600" cy="610" r="315" fill="#bbf7d0"/><path d="M350 820c150 85 350 85 500 0" fill="none" stroke="#22c55e" stroke-width="24" stroke-linecap="round"/><circle cx="520" cy="650" r="12" fill="#22c55e" opacity=".4"/><circle cx="680" cy="650" r="12" fill="#22c55e" opacity=".4"/><circle cx="600" cy="720" r="12" fill="#22c55e" opacity=".4"/>
<text x="600" y="355" text-anchor="middle" font-family="Arial, sans-serif" font-size="25" font-weight="800" letter-spacing="5" fill="#713f12">FRESH TOMATOES</text>
<text x="600" y="460" text-anchor="middle" font-family="Arial, sans-serif" font-size="23" font-weight="800" letter-spacing="4" fill="#22c55e">FRESH PRODUCE</text>
<text x="600" y="640" text-anchor="middle" font-family="Apple Color Emoji, Segoe UI Emoji, sans-serif" font-size="155">🍅</text>
<text x="600" y="815" text-anchor="middle" font-family="Arial, sans-serif" font-size="43" font-weight="900" fill="#713f12"><tspan x="600" dy="0">Fresh Tomatoes Local</tspan></text>
<rect x="485" y="945" width="230" height="58" rx="29" fill="#713f12"/><text x="600" y="984" text-anchor="middle" font-family="Arial, sans-serif" font-size="25" font-weight="800" fill="#fff">1 KG</text>
<text x="600" y="1090" text-anchor="middle" font-family="Arial, sans-serif" font-size="19" font-weight="700" letter-spacing="5" fill="#713f12" opacity=".65">QUALITY ASSURED • DAILY VALUE</text>
<g opacity=".6"><rect x="420" y="1120" width="3" height="45" fill="#713f12"/><rect x="425" y="1120" width="1" height="45" fill="#713f12"/><rect x="428" y="1120" width="4" height="45" fill="#713f12"/><rect x="434" y="1120" width="2" height="45" fill="#713f12"/><rect x="438" y="1120" width="5" height="45" fill="#713f12"/><rect x="445" y="1120" width="1" height="45" fill="#713f12"/><rect x="448" y="1120" width="3" height="45" fill="#713f12"/><rect x="453" y="1120" width="2" height="45" fill="#713f12"/><rect x="457" y="1120" width="4" height="45" fill="#713f12"/><rect x="463" y="1120" width="1" height="45" fill="#713f12"/><rect x="466" y="1120" width="3" height="45" fill="#713f12"/><rect x="471" y="1120" width="2" height="45" fill="#713f12"/><rect x="475" y="1120" width="5" height="45" fill="#713f12"/><rect x="482" y="1120" width="1" height="45" fill="#713f12"/><rect x="485" y="1120" width="4" height="45" fill="#713f12"/><rect x="491" y="1120" width="2" height="45" fill="#713f12"/><rect x="495" y="1120" width="3" height="45" fill="#713f12"/><rect x="500" y="1120" width="1" height="45" fill="#713f12"/></g>
</svg>