<svg xmlns="http://www.w3.org/2000/svg" width="1200" height="1200" viewBox="0 0 1200 1200">
<defs><linearGradient id="bg" x1="0" y1="0" x2="1" y2="1"><stop stop-color="#ccfbf1"/><stop offset="1" stop-color="#fff"/></linearGradient><filter id="shadow" x="-30%" y="-30%" width="160%" height="170%"><feDropShadow dx="0" dy="28" stdDeviation="28" flood-color="#064e3b" flood-opacity=".2"/></filter><pattern id="dots" width="46" height="46" patternUnits="userSpaceOnUse"><circle cx="5" cy="5" r="3" fill="#14b8a6" opacity=".16"/></pattern></defs>
<rect width="1200" height="1200" rx="80" fill="url(#bg)"/><rect width="1200" height="1200" rx="80" fill="url(#dots)"/>
<circle cx="1050" cy="145" r="170" fill="#14b8a6" opacity=".1"/><circle cx="125" cy="1050" r="210" fill="#064e3b" opacity=".08"/>
<path d="M470 260h260v95l58 74v450c0 53-43 96-96 96H508c-53 0-96-43-96-96V429l58-74v-95Z" fill="#fff" filter="url(#shadow)"/><rect x="505" y="188" width="190" height="108" rx="24" fill="#14b8a6"/><path d="M455 500h290v345H455z" fill="#ccfbf1"/><circle cx="600" cy="675" r="95" fill="#fff" opacity=".65"/><path d="M540 750h120M540 790h120M540 830h120" stroke="#14b8a6" stroke-width="8" opacity=".4"/>
<text x="600" y="355" text-anchor="middle" font-family="Arial, sans-serif" font-size="25" font-weight="800" letter-spacing="5" fill="#064e3b">VIM DISHWASH</text>
<text x="600" y="460" text-anchor="middle" font-family="Arial, sans-serif" font-size="23" font-weight="800" letter-spacing="4" fill="#14b8a6">HOME CARE</text>
<text x="600" y="640" text-anchor="middle" font-family="Apple Color Emoji, Segoe UI Emoji, sans-serif" font-size="155">🧽</text>
<text x="600" y="815" text-anchor="middle" font-family="Arial, sans-serif" font-size="43" font-weight="900" fill="#064e3b"><tspan x="600" dy="0">Vim Dishwash Gel Lemon</tspan></text>
<rect x="485" y="945" width="230" height="58" rx="29" fill="#064e3b"/><text x="600" y="984" text-anchor="middle" font-family="Arial, sans-serif" font-size="25" font-weight="800" fill="#fff">750 ML BOTTLE</text>
<text x="600" y="1090" text-anchor="middle" font-family="Arial, sans-serif" font-size="19" font-weight="700" letter-spacing="5" fill="#064e3b" opacity=".65">QUALITY ASSURED • DAILY VALUE</text>
<g opacity=".6"><rect x="420" y="1120" width="3" height="45" fill="#064e3b"/><rect x="425" y="1120" width="1" height="45" fill="#064e3b"/><rect x="428" y="1120" width="4" height="45" fill="#064e3b"/><rect x="434" y="1120" width="2" height="45" fill="#064e3b"/><rect x="438" y="1120" width="5" height="45" fill="#064e3b"/><rect x="445" y="1120" width="1" height="45" fill="#064e3b"/><rect x="448" y="1120" width="3" height="45" fill="#064e3b"/><rect x="453" y="1120" width="2" height="45" fill="#064e3b"/><rect x="457" y="1120" width="4" height="45" fill="#064e3b"/><rect x="463" y="1120" width="1" height="45" fill="#064e3b"/><rect x="466" y="1120" width="3" height="45" fill="#064e3b"/><rect x="471" y="1120" width="2" height="45" fill="#064e3b"/><rect x="475" y="1120" width="5" height="45" fill="#064e3b"/><rect x="482" y="1120" width="1" height="45" fill="#064e3b"/><rect x="485" y="1120" width="4" height="45" fill="#064e3b"/><rect x="491" y="1120" width="2" height="45" fill="#064e3b"/><rect x="495" y="1120" width="3" height="45" fill="#064e3b"/><rect x="500" y="1120" width="1" height="45" fill="#064e3b"/></g>
</svg>